<svg width="148" height="47" viewBox="0 0 148 47" fill="none" xmlns="http://www.w3.org/2000/svg">
<g clip-path="url(#clip0_1974_36902)">
<path d="M0.338513 18.0105C0.526474 15.5289 0.977579 13.1225 1.65424 10.7161C2.10534 9.13687 2.74441 7.67047 3.60902 6.27927C5.45104 3.42167 8.12007 1.84247 11.3906 1.12807C16.24 0.0752697 21.1645 -0.11273 26.0891 0.0376696C29.4348 0.15047 32.7053 0.63927 35.863 1.69207C38.6824 2.63207 41.1635 4.09847 42.8551 6.61767C44.0205 8.34727 44.5468 10.3025 44.9603 12.2953C45.9377 17.3337 45.9753 22.4097 45.7497 27.4857C45.7122 28.4633 45.5618 29.4409 45.4866 30.4561C45.4114 30.5313 45.3362 30.6065 45.4114 30.7193C44.9603 34.4041 44.2085 37.9761 42.0657 41.0969C40.2237 43.7665 37.6299 45.1577 34.5473 45.8345C29.7731 46.8873 24.9237 47.1129 20.0368 46.9249C16.9918 46.8121 13.9844 46.5489 11.0147 45.7969C7.89452 45.0449 5.22548 43.5785 3.2707 40.9465C1.99256 39.1793 1.3535 37.1865 0.977579 35.0809C-0.0374075 29.8921 -0.187776 24.5905 0.188145 19.2889C0.188145 18.9505 0.188145 18.5745 0.300921 18.2361C0.413697 18.1609 0.376105 18.0857 0.300921 18.0105H0.338513Z" fill="#5F08B1"/>
<path d="M109.807 19.6272C109.205 18.0856 108.153 16.8824 106.536 16.356C104.469 15.6416 102.551 15.98 100.785 17.296C100.672 17.3712 100.559 17.5968 100.371 17.5216C100.183 17.4464 100.258 17.2208 100.258 17.0328C100.258 15.1152 100.258 13.16 100.258 11.2424C100.258 9.70076 99.9951 9.39996 98.3787 9.43756C98.3035 9.43756 98.2283 9.43756 98.1531 9.43756C97.1005 9.47516 96.7246 9.85116 96.7246 10.9416C96.7246 14.2128 96.7246 17.484 96.7246 20.7552V23.5C96.7246 25.944 96.7246 28.388 96.7246 30.832C96.7246 31.2832 96.7998 31.7344 97.3261 31.8848C97.9651 32.0728 98.6042 32.1104 99.2433 31.8848C99.6568 31.772 99.8448 31.5088 99.8823 31.0576C99.8823 30.9072 99.8072 30.6816 99.9575 30.6064C100.145 30.4936 100.258 30.7568 100.371 30.832C103.303 33.3512 108.153 32.2608 109.656 28.3504C110.107 27.1848 110.295 26.0192 110.408 24.7784C110.558 22.9736 110.333 21.244 109.694 19.5896L109.807 19.6272ZM106.348 27.448C105.521 29.2904 103.604 29.704 101.987 28.4632C101.8 28.3128 101.612 28.1624 101.461 28.0496C100.709 27.4104 100.108 26.7336 100.296 25.6056C100.371 25.1168 100.296 24.628 100.296 24.1392C100.296 23.6128 100.333 23.0864 100.296 22.56C100.221 21.8832 100.409 21.3192 100.897 20.8304C101.424 20.3416 101.912 19.8528 102.551 19.5144C104.093 18.6872 105.784 19.176 106.423 20.8304C107.288 23.0112 107.326 25.3048 106.348 27.4856V27.448Z" fill="black"/>
<path d="M66.2381 30.5691C66.2381 30.5691 66.1629 30.3059 66.0877 30.1555C63.9074 24.1019 61.6895 18.0483 59.5091 11.9947C59.2084 11.2051 58.8325 10.9043 57.9678 10.9043C57.7047 10.9043 57.4791 10.9043 57.216 10.9043C56.9153 10.9043 56.5769 10.9043 56.2762 10.9043C55.6747 10.9419 55.2236 11.2051 55.0357 11.8067C54.3214 13.8371 53.5696 15.8675 52.8177 17.8979C51.6148 21.1691 50.4494 24.4403 49.2465 27.7115C48.9082 28.6515 48.5322 29.5915 48.2315 30.5691C47.9683 31.3587 48.2315 31.7723 49.0209 31.9603C49.5096 32.0731 49.9983 32.0355 50.487 31.9603C51.2013 31.8851 51.6148 31.5091 51.8403 30.8323C52.2163 29.5539 52.7049 28.3131 53.1185 27.0723C53.2312 26.7339 53.3816 26.5835 53.7575 26.6211C55.9755 26.6211 58.231 26.6211 60.4489 26.6211C60.8248 26.6211 61.0128 26.7715 61.1256 27.1099C61.5391 28.3883 62.0278 29.6291 62.4413 30.9075C62.6669 31.5467 63.0428 31.9227 63.7194 31.9979C64.2833 32.0355 64.8096 32.0731 65.3735 31.9979C66.1629 31.8099 66.4261 31.3963 66.2005 30.6067L66.2381 30.5691ZM59.5467 23.6507C57.9678 23.6507 56.3514 23.6507 54.7725 23.6507C54.4342 23.6507 54.3214 23.5755 54.4342 23.1995C55.2988 20.7179 56.1634 18.1987 57.0656 15.6795C57.0656 15.6795 57.1032 15.6419 57.1784 15.5291C57.6295 16.8075 58.0806 18.0107 58.4941 19.2139C58.9452 20.5299 59.3963 21.8459 59.885 23.1619C59.9978 23.5003 59.885 23.6131 59.5843 23.6131L59.5467 23.6507Z" fill="black"/>
<path d="M143.603 20.5299C143.077 18.7251 141.949 17.4091 140.182 16.6571C138.34 15.8675 136.46 15.8299 134.581 16.3187C132.927 16.7323 131.611 17.6347 130.634 19.1011C129.581 20.6803 129.318 22.4475 129.28 24.2523C129.28 25.0795 129.355 25.8691 129.506 26.6587C130.07 29.4411 131.573 31.3963 134.468 32.0355C135.521 32.2611 136.611 32.3363 137.738 32.1859C139.881 31.8851 141.686 30.9827 142.813 29.1027C144.43 26.3955 144.505 23.5003 143.64 20.5675L143.603 20.5299ZM139.768 27.5987C138.904 29.0275 137.551 29.3283 136.047 29.1779C134.581 29.0275 133.603 28.2003 133.19 26.7715C132.664 24.9291 132.626 23.0491 133.34 21.2067C133.829 19.8907 134.994 19.1387 136.423 19.1011C137.701 19.0635 138.829 19.2515 139.618 20.3419C140.22 21.1691 140.408 22.1467 140.52 23.1243C140.52 23.4627 140.52 23.8011 140.52 24.1395C140.558 25.3427 140.445 26.5459 139.768 27.5987Z" fill="black"/>
<path d="M127.137 21.5448C126.649 19.1384 125.408 17.3336 123.04 16.4688C121.649 15.98 120.183 15.9048 118.717 16.0928C116.424 16.4312 114.619 17.5216 113.567 19.6648C112.289 22.2968 112.251 25.004 113.078 27.7488C113.642 29.6288 114.845 30.9824 116.724 31.6968C118.679 32.4112 120.672 32.4112 122.664 31.772C123.717 31.4336 124.656 30.832 125.371 30.0048C126.912 28.2752 127.363 26.2072 127.401 23.5752C127.401 23.1616 127.325 22.3344 127.175 21.5448H127.137ZM123.641 25.9816C123.19 28.1624 121.875 29.2152 119.581 29.1776C117.777 29.1776 116.499 27.8616 116.198 25.8688C116.123 25.3048 116.085 24.7032 116.085 24.1768C116.085 23.0112 116.198 21.9208 116.724 20.9432C117.364 19.74 118.341 19.1384 119.694 19.1008C120.86 19.0632 121.912 19.2136 122.739 20.1536C123.228 20.7176 123.453 21.3568 123.604 22.0712C123.905 23.3872 123.905 24.7032 123.641 26.0192V25.9816Z" fill="black"/>
<path d="M92.9662 20.7926C92.8534 18.9126 92.1391 17.3334 90.2595 16.5814C87.4401 15.5286 84.7335 15.9046 82.1772 17.371C81.1998 17.935 81.275 18.9878 81.5758 19.8902C81.7261 20.379 82.2524 20.5294 82.7787 20.3038C82.9667 20.2286 83.1546 20.1158 83.3426 20.003C84.5455 19.3262 85.8237 18.9126 87.2522 18.9878C88.6431 19.063 89.3949 19.7022 89.5829 21.0182C89.5829 21.2438 89.5829 21.4694 89.5829 21.695C89.5829 22.447 89.5829 22.4846 88.831 22.447C87.3274 22.447 85.8613 22.447 84.4328 22.8982C82.4028 23.5374 80.9367 24.7406 80.7111 26.959C80.5232 28.6886 81.0119 30.1926 82.5156 31.2078C83.9817 32.1854 85.5981 32.3734 87.2898 32.035C88.2296 31.847 89.019 31.3582 89.846 30.7942C90.0716 31.7342 90.2971 31.9598 91.1993 31.9974C91.3497 31.9974 91.5001 31.9974 91.688 31.9974C92.6654 31.9974 93.0789 31.5838 93.0789 30.6062C93.0789 27.335 93.1917 24.0262 92.9662 20.755V20.7926ZM89.5829 26.5078C89.5077 26.8838 89.7332 27.4102 89.3197 27.8238C88.6055 28.5006 87.8912 29.1774 86.8011 29.2902C86.5379 29.2902 86.3124 29.2902 86.0492 29.2902C85.0718 29.2902 84.4328 28.7638 84.2072 27.8614C84.0193 26.959 84.3576 26.0942 85.2222 25.6806C86.5003 25.079 87.8912 25.1918 89.2821 25.1542C89.5077 25.1542 89.5829 25.3422 89.5829 25.5302V26.5078Z" fill="black"/>
<path d="M73.0794 26.9973C73.2674 26.8845 73.2674 26.6965 73.3426 26.5837C74.3952 23.5381 75.4102 20.5301 76.4251 17.4845C76.8011 16.4317 77.0266 16.2437 78.1544 16.2437C78.5303 16.2437 78.9062 16.2437 79.2445 16.3189C79.8836 16.5069 80.1468 16.8829 79.9588 17.5597C79.7332 18.3117 79.4701 19.0637 79.1694 19.8157C77.816 23.6133 76.4251 27.4485 75.0342 31.2461C74.3952 32.9757 73.7561 34.7429 73.1546 36.4725C72.9291 37.1493 72.478 37.4501 71.8389 37.5253C71.3126 37.6005 70.8239 37.6005 70.2976 37.5253C69.433 37.4125 69.1699 36.8861 69.4706 36.0965C69.9969 34.7429 70.5232 33.3893 71.0495 32.0357C71.1247 31.8477 71.1998 31.6973 71.0871 31.4717C70.26 29.5541 69.5834 27.5989 68.8315 25.6437C67.8541 23.0869 66.9143 20.5301 65.937 17.9357C65.4858 16.7701 65.8618 16.2437 67.1399 16.2061C69.0195 16.2061 69.0571 16.2061 69.6962 17.9357C70.7111 20.8309 71.7637 23.6885 72.7787 26.5837C72.8163 26.6965 72.8915 26.8093 72.9667 26.9597L73.0794 26.9973Z" fill="black"/>
<path d="M45.4493 30.7564C45.4493 30.7564 45.2613 30.6812 45.2989 30.606C45.2989 30.4932 45.4493 30.4932 45.5245 30.4932C45.5245 30.606 45.5245 30.6812 45.4493 30.794V30.7564Z" fill="#E05A52"/>
<path d="M16.6154 19.74C17.1417 17.7472 17.7056 15.9048 18.5702 14.1376C18.9837 13.2728 19.4724 12.408 20.1491 11.6936C21.6903 10.0392 23.5324 9.96397 25.1488 11.5432C26.5021 12.8592 27.3292 14.5136 28.1186 16.2056C28.4569 16.92 28.7577 17.6344 28.9832 18.3488C29.1336 18.8376 29.3967 19.1008 29.923 19.2136C31.0132 19.4768 32.0282 19.8904 32.9304 20.6048C33.4191 21.0184 33.7574 21.4696 33.795 22.1088C33.795 22.4848 33.795 22.8608 33.5694 23.1616C31.5395 26.6208 29.5095 30.1176 27.4795 33.5768C27.3668 33.7648 27.254 33.9528 27.066 34.0656C25.1488 35.5696 23.0061 36.096 20.6378 35.2688C19.4724 34.8928 18.683 34.0656 18.1191 32.9376C16.2019 28.9144 14.2471 24.8912 12.3299 20.868C11.8788 19.8904 12.1796 19.2136 13.2697 19.0256C14.4351 18.8 15.5628 18.8 16.5778 19.7024L16.6154 19.74Z" fill="white"/>
<path d="M29.3592 23.876C29.3592 24.1392 29.284 24.4024 29.1337 24.6656C27.63 27.1848 26.1263 29.7416 24.6226 32.2984C24.3971 32.6744 24.1339 32.9752 23.6828 32.9752C23.2317 32.9752 23.0062 32.6368 22.8182 32.2232C21.2769 29.0272 19.7356 25.8688 18.1944 22.7104C17.9688 22.2592 17.9312 21.8832 18.044 21.3944C18.6079 19.1008 19.2094 16.8448 20.2619 14.7392C20.6003 14.0248 21.0138 13.3856 21.5401 12.8216C22.2919 12.032 22.9686 11.9944 23.7956 12.7464C24.3219 13.1976 24.7354 13.7616 25.1113 14.3256C25.9383 15.604 26.5398 16.9952 27.1037 18.424C27.2165 18.6872 27.2165 18.8 26.8781 18.8C24.8858 18.8 23.1189 19.4768 21.5025 20.6048C20.713 21.1312 19.9988 21.6952 19.2845 22.3344C18.9086 22.6728 18.9462 23.1616 19.3973 23.3872C19.886 23.6128 20.2995 23.7632 20.8634 23.312C22.7054 21.9584 24.7354 21.1688 27.0661 21.8832C27.63 22.0712 28.1563 22.2968 28.645 22.6352C29.0585 22.936 29.284 23.3872 29.3216 23.9136L29.3592 23.876Z" fill="#5F08B1"/>
<path d="M141.422 11.4686H140.67V7.18217H139.542V6.46777H142.549V7.18217H141.422V11.4686Z" fill="black"/>
<path d="M146.685 8.0841L145.444 11.5057H145.219L144.054 8.0465L143.49 11.4305H142.625L143.452 6.2793H144.091L145.407 9.7009L146.647 6.2793H147.286L148.038 11.4305H147.174L146.685 8.0465V8.0841Z" fill="black"/>
</g>
<defs>
<clipPath id="clip0_1974_36902">
<rect width="148" height="47" fill="white"/>
</clipPath>
</defs>
</svg>
