<svg width="205" height="65" viewBox="0 0 205 65" fill="none" xmlns="http://www.w3.org/2000/svg">
<g clip-path="url(#clip0_1974_36147)">
<path d="M0.468887 24.9082C0.729237 21.4762 1.35408 18.1482 2.29134 14.8202C2.91618 12.6362 3.80137 10.6082 4.99899 8.68416C7.55042 4.73216 11.2474 2.54816 15.7775 1.56016C22.4945 0.104159 29.3157 -0.155841 36.1369 0.0521586C40.7711 0.208159 45.3012 0.884159 49.6751 2.34016C53.5804 3.64016 57.017 5.66816 59.3602 9.15216C60.9743 11.5442 61.7033 14.2482 62.2761 17.0042C63.6299 23.9722 63.682 30.9922 63.3696 38.0122C63.3175 39.3642 63.1092 40.7162 63.0051 42.1202C62.9009 42.2242 62.7968 42.3282 62.9009 42.4842C62.2761 47.5802 61.2347 52.5202 58.2667 56.8362C55.7153 60.5282 52.1224 62.4522 47.8527 63.3882C41.2398 64.8442 34.5227 65.1562 27.7536 64.8962C23.5359 64.7402 19.3703 64.3762 15.2568 63.3362C10.935 62.2962 7.238 60.2682 4.53035 56.6282C2.75997 54.1842 1.87478 51.4282 1.35408 48.5162C-0.0518145 41.3402 -0.260095 34.0082 0.260606 26.6762C0.260606 26.2082 0.260606 25.6882 0.416817 25.2202C0.573027 25.1162 0.520957 25.0122 0.416817 24.9082H0.468887Z" fill="#5F08B1"/>
<path d="M152.097 27.144C151.264 25.012 149.806 23.348 147.567 22.62C144.703 21.632 142.047 22.1 139.6 23.92C139.444 24.024 139.288 24.336 139.027 24.232C138.767 24.128 138.871 23.816 138.871 23.556C138.871 20.904 138.871 18.2 138.871 15.548C138.871 13.416 138.507 13 136.268 13.052C136.164 13.052 136.059 13.052 135.955 13.052C134.497 13.104 133.977 13.624 133.977 15.132C133.977 19.656 133.977 24.18 133.977 28.704V32.5C133.977 35.88 133.977 39.26 133.977 42.64C133.977 43.264 134.081 43.888 134.81 44.096C135.695 44.356 136.58 44.408 137.465 44.096C138.038 43.94 138.298 43.576 138.35 42.952C138.35 42.744 138.246 42.432 138.455 42.328C138.715 42.172 138.871 42.536 139.027 42.64C143.089 46.124 149.806 44.616 151.889 39.208C152.514 37.596 152.774 35.984 152.93 34.268C153.138 31.772 152.826 29.38 151.941 27.092L152.097 27.144ZM147.307 37.96C146.161 40.508 143.505 41.08 141.266 39.364C141.006 39.156 140.746 38.948 140.537 38.792C139.496 37.908 138.663 36.972 138.923 35.412C139.027 34.736 138.923 34.06 138.923 33.384C138.923 32.656 138.975 31.928 138.923 31.2C138.819 30.264 139.079 29.484 139.756 28.808C140.485 28.132 141.162 27.456 142.047 26.988C144.182 25.844 146.525 26.52 147.411 28.808C148.608 31.824 148.66 34.996 147.307 38.012V37.96Z" fill="white"/>
<path d="M91.7482 42.2761C91.7482 42.2761 91.644 41.9121 91.5399 41.7041C88.5198 33.3321 85.4477 24.9601 82.4276 16.5881C82.0111 15.4961 81.4904 15.0801 80.2928 15.0801C79.9283 15.0801 79.6159 15.0801 79.2514 15.0801C78.8348 15.0801 78.3662 15.0801 77.9496 15.0801C77.1165 15.1321 76.4916 15.4961 76.2313 16.3281C75.242 19.1361 74.2006 21.9441 73.1592 24.7521C71.4929 29.2761 69.8787 33.8001 68.2125 38.3241C67.7439 39.6241 67.2232 40.9241 66.8066 42.2761C66.4421 43.3681 66.8066 43.9401 67.9001 44.2001C68.577 44.3561 69.2539 44.3041 69.9308 44.2001C70.9201 44.0961 71.4929 43.5761 71.8053 42.6401C72.326 40.8721 73.0029 39.1561 73.5757 37.4401C73.7319 36.9721 73.9402 36.7641 74.4609 36.8161C77.533 36.8161 80.6573 36.8161 83.7294 36.8161C84.2501 36.8161 84.5104 37.0241 84.6667 37.4921C85.2394 39.2601 85.9163 40.9761 86.4891 42.7441C86.8015 43.6281 87.3222 44.1481 88.2595 44.2521C89.0405 44.3041 89.7695 44.3561 90.5506 44.2521C91.644 43.9921 92.0085 43.4201 91.6961 42.3281L91.7482 42.2761ZM82.4797 32.7081C80.2928 32.7081 78.0537 32.7081 75.8668 32.7081C75.3982 32.7081 75.242 32.6041 75.3982 32.0841C76.5958 28.6521 77.7934 25.1681 79.0431 21.6841C79.0431 21.6841 79.0951 21.6321 79.1993 21.4761C79.8241 23.2441 80.449 24.9081 81.0217 26.5721C81.6466 28.3921 82.2714 30.2121 82.9483 32.0321C83.1045 32.5001 82.9483 32.6561 82.5318 32.6561L82.4797 32.7081Z" fill="white"/>
<path d="M198.909 28.3925C198.18 25.8965 196.618 24.0765 194.171 23.0365C191.619 21.9445 189.016 21.8925 186.412 22.5685C184.121 23.1405 182.299 24.3885 180.945 26.4165C179.487 28.6005 179.122 31.0445 179.07 33.5405C179.07 34.6845 179.174 35.7765 179.383 36.8685C180.164 40.7165 182.247 43.4205 186.256 44.3045C187.714 44.6165 189.224 44.7205 190.786 44.5125C193.754 44.0965 196.253 42.8485 197.816 40.2485C200.055 36.5045 200.159 32.5005 198.961 28.4445L198.909 28.3925ZM193.598 38.1685C192.4 40.1445 190.526 40.5605 188.443 40.3525C186.412 40.1445 185.058 39.0005 184.486 37.0245C183.757 34.4765 183.705 31.8765 184.694 29.3285C185.371 27.5085 186.985 26.4685 188.964 26.4165C190.734 26.3645 192.296 26.6245 193.39 28.1325C194.223 29.2765 194.483 30.6285 194.639 31.9805C194.639 32.4485 194.639 32.9165 194.639 33.3845C194.691 35.0485 194.535 36.7125 193.598 38.1685Z" fill="white"/>
<path d="M176.102 29.796C175.425 26.468 173.707 23.972 170.426 22.776C168.5 22.1 166.469 21.996 164.438 22.256C161.262 22.724 158.763 24.232 157.305 27.196C155.534 30.836 155.482 34.58 156.628 38.376C157.409 40.976 159.075 42.848 161.678 43.836C164.386 44.824 167.146 44.824 169.906 43.94C171.364 43.472 172.665 42.64 173.655 41.496C175.789 39.104 176.414 36.244 176.466 32.604C176.466 32.032 176.362 30.888 176.154 29.796H176.102ZM171.259 35.932C170.635 38.948 168.812 40.404 165.636 40.352C163.136 40.352 161.366 38.532 160.95 35.776C160.845 34.996 160.793 34.164 160.793 33.436C160.793 31.824 160.95 30.316 161.678 28.964C162.564 27.3 163.918 26.468 165.792 26.416C167.406 26.364 168.864 26.572 170.01 27.872C170.687 28.652 170.999 29.536 171.207 30.524C171.624 32.344 171.624 34.164 171.259 35.984V35.932Z" fill="white"/>
<path d="M128.77 28.7563C128.614 26.1563 127.625 23.9723 125.021 22.9323C121.116 21.4763 117.367 21.9963 113.826 24.0243C112.472 24.8043 112.576 26.2603 112.993 27.5083C113.201 28.1843 113.93 28.3923 114.659 28.0803C114.919 27.9763 115.18 27.8203 115.44 27.6643C117.106 26.7283 118.877 26.1563 120.855 26.2603C122.782 26.3643 123.823 27.2483 124.084 29.0683C124.084 29.3803 124.084 29.6923 124.084 30.0043C124.084 31.0443 124.084 31.0963 123.042 31.0443C120.96 31.0443 118.929 31.0443 116.95 31.6683C114.138 32.5523 112.108 34.2163 111.795 37.2843C111.535 39.6763 112.212 41.7563 114.295 43.1603C116.325 44.5123 118.564 44.7723 120.908 44.3043C122.209 44.0443 123.303 43.3683 124.448 42.5883C124.761 43.8883 125.073 44.2003 126.323 44.2523C126.531 44.2523 126.739 44.2523 127 44.2523C128.354 44.2523 128.926 43.6803 128.926 42.3283C128.926 37.8043 129.083 33.2283 128.77 28.7043V28.7563ZM124.084 36.6603C123.98 37.1803 124.292 37.9083 123.719 38.4803C122.73 39.4163 121.741 40.3523 120.231 40.5083C119.866 40.5083 119.554 40.5083 119.189 40.5083C117.835 40.5083 116.95 39.7803 116.638 38.5323C116.377 37.2843 116.846 36.0883 118.044 35.5163C119.814 34.6843 121.741 34.8403 123.667 34.7883C123.98 34.7883 124.084 35.0483 124.084 35.3083V36.6603Z" fill="white"/>
<path d="M101.225 37.3361C101.485 37.1801 101.485 36.9201 101.589 36.7641C103.047 32.5521 104.453 28.3921 105.859 24.1801C106.38 22.7241 106.692 22.4641 108.254 22.4641C108.775 22.4641 109.296 22.4641 109.764 22.5681C110.65 22.8281 111.014 23.3481 110.754 24.2841C110.441 25.3241 110.077 26.3641 109.66 27.4041C107.786 32.6561 105.859 37.9601 103.933 43.2121C103.047 45.6041 102.162 48.0481 101.329 50.4401C101.017 51.3761 100.392 51.7921 99.5067 51.8961C98.7777 52.0001 98.1008 52.0001 97.3718 51.8961C96.1742 51.7401 95.8097 51.0121 96.2263 49.9201C96.9552 48.0481 97.6842 46.1761 98.4132 44.3041C98.5173 44.0441 98.6215 43.8361 98.4653 43.5241C97.3197 40.8721 96.3825 38.1681 95.3411 35.4641C93.9872 31.9281 92.6855 28.3921 91.3317 24.8041C90.7068 23.1921 91.2275 22.4641 92.9979 22.4121C95.6014 22.4121 95.6535 22.4121 96.5387 24.8041C97.9446 28.8081 99.4025 32.7601 100.808 36.7641C100.86 36.9201 100.965 37.0761 101.069 37.2841L101.225 37.3361Z" fill="white"/>
<path d="M62.9534 42.5359C62.9534 42.5359 62.6931 42.4319 62.7452 42.3279C62.7452 42.1719 62.9534 42.1719 63.0576 42.1719C63.0576 42.3279 63.0576 42.4319 62.9534 42.5879V42.5359Z" fill="#E05A52"/>
<path d="M23.0146 27.2997C23.7436 24.5437 24.5246 21.9957 25.7223 19.5517C26.295 18.3557 26.9719 17.1597 27.9092 16.1717C30.0441 13.8837 32.5955 13.7797 34.8345 15.9637C36.709 17.7837 37.8546 20.0717 38.9481 22.4117C39.4167 23.3997 39.8333 24.3877 40.1457 25.3757C40.354 26.0517 40.7184 26.4157 41.4474 26.5717C42.9575 26.9357 44.3634 27.5077 45.613 28.4957C46.2899 29.0677 46.7586 29.6917 46.8106 30.5757C46.8106 31.0957 46.8106 31.6157 46.4982 32.0317C43.6864 36.8157 40.8747 41.6517 38.0629 46.4357C37.9067 46.6957 37.7504 46.9557 37.4901 47.1117C34.8345 49.1917 31.8665 49.9197 28.5861 48.7757C26.9719 48.2557 25.8785 47.1117 25.0974 45.5517C22.4418 39.9877 19.7342 34.4237 17.0786 28.8597C16.4538 27.5077 16.8703 26.5717 18.3804 26.3117C19.9945 25.9997 21.5566 25.9997 22.9625 27.2477L23.0146 27.2997Z" fill="white"/>
<path d="M40.6666 33.0205C40.6666 33.3845 40.5625 33.7485 40.3542 34.1125C38.2714 37.5965 36.1886 41.1325 34.1058 44.6685C33.7934 45.1885 33.4289 45.6045 32.804 45.6045C32.1792 45.6045 31.8668 45.1365 31.6064 44.5645C29.4715 40.1445 27.3367 35.7765 25.2018 31.4085C24.8894 30.7845 24.8373 30.2645 24.9935 29.5885C25.7746 26.4165 26.6077 23.2965 28.0656 20.3845C28.5343 19.3965 29.107 18.5125 29.836 17.7325C30.8774 16.6405 31.8147 16.5885 32.9602 17.6285C33.6892 18.2525 34.262 19.0325 34.7827 19.8125C35.9282 21.5805 36.7613 23.5045 37.5424 25.4805C37.6986 25.8445 37.6986 26.0005 37.23 26.0005C34.4703 26.0005 32.023 26.9365 29.784 28.4965C28.6905 29.2245 27.7011 30.0045 26.7118 30.8885C26.1911 31.3565 26.2432 32.0325 26.868 32.3445C27.5449 32.6565 28.1177 32.8645 28.8988 32.2405C31.4502 30.3685 34.262 29.2765 37.4903 30.2645C38.2714 30.5245 39.0004 30.8365 39.6773 31.3045C40.25 31.7205 40.5625 32.3445 40.6145 33.0725L40.6666 33.0205Z" fill="#5F08B1"/>
<path d="M195.889 15.8594H194.847V9.93136H193.285V8.94336H197.451V9.93136H195.889V15.8594Z" fill="white"/>
<path d="M203.178 11.1796L201.46 15.9116H201.148L199.533 11.1276L198.752 15.8076H197.555L198.7 8.68359H199.585L201.408 13.4156L203.126 8.68359H204.011L205.053 15.8076H203.855L203.178 11.1276V11.1796Z" fill="white"/>
</g>
<defs>
<clipPath id="clip0_1974_36147">
<rect width="205" height="65" fill="white"/>
</clipPath>
</defs>
</svg>
